<?xml version="1.0" encoding="UTF-8" standalone="no"?>
<!-- Created with Inkscape (http://www.inkscape.org/) -->

<svg
   width="64pt"
   height="64pt"
   viewBox="0 0 22.577778 22.577778"
   version="1.1"
   id="svg831"
   inkscape:version="1.1.1 (3bf5ae0d25, 2021-09-20)"
   sodipodi:docname="#1.svg"
   inkscape:export-filename="C:\Users\User\Desktop\Done Januari II\E\12 - Lemonade.png"
   inkscape:export-xdpi="576"
   inkscape:export-ydpi="576"
   xmlns:inkscape="http://www.inkscape.org/namespaces/inkscape"
   xmlns:sodipodi="http://sodipodi.sourceforge.net/DTD/sodipodi-0.dtd"
   xmlns="http://www.w3.org/2000/svg"
   xmlns:svg="http://www.w3.org/2000/svg"
   xmlns:rdf="http://www.w3.org/1999/02/22-rdf-syntax-ns#"
   xmlns:cc="http://creativecommons.org/ns#"
   xmlns:dc="http://purl.org/dc/elements/1.1/">
  <defs
     id="defs825">
    <pattern
       id="EMFhbasepattern"
       patternUnits="userSpaceOnUse"
       width="6"
       height="6"
       x="0"
       y="0" />
    <pattern
       id="EMFhbasepattern-9"
       patternUnits="userSpaceOnUse"
       width="6"
       height="6"
       x="0"
       y="0" />
    <pattern
       id="EMFhbasepattern-0"
       patternUnits="userSpaceOnUse"
       width="6"
       height="6"
       x="0"
       y="0" />
    <pattern
       id="EMFhbasepattern-7"
       patternUnits="userSpaceOnUse"
       width="6"
       height="6"
       x="0"
       y="0" />
    <pattern
       id="EMFhbasepattern-2"
       patternUnits="userSpaceOnUse"
       width="6"
       height="6"
       x="0"
       y="0" />
    <pattern
       id="EMFhbasepattern-98"
       patternUnits="userSpaceOnUse"
       width="6"
       height="6"
       x="0"
       y="0" />
    <pattern
       id="EMFhbasepattern-6"
       patternUnits="userSpaceOnUse"
       width="6"
       height="6"
       x="0"
       y="0" />
    <pattern
       id="EMFhbasepattern-01"
       patternUnits="userSpaceOnUse"
       width="6"
       height="6"
       x="0"
       y="0" />
    <pattern
       id="EMFhbasepattern-07"
       patternUnits="userSpaceOnUse"
       width="6"
       height="6"
       x="0"
       y="0" />
    <pattern
       id="EMFhbasepattern-8"
       patternUnits="userSpaceOnUse"
       width="6"
       height="6"
       x="0"
       y="0" />
    <pattern
       id="EMFhbasepattern-4"
       patternUnits="userSpaceOnUse"
       width="6"
       height="6"
       x="0"
       y="0" />
    <pattern
       id="EMFhbasepattern-40"
       patternUnits="userSpaceOnUse"
       width="6"
       height="6"
       x="0"
       y="0" />
    <pattern
       id="EMFhbasepattern-08"
       patternUnits="userSpaceOnUse"
       width="6"
       height="6"
       x="0"
       y="0" />
    <pattern
       id="EMFhbasepattern-04"
       patternUnits="userSpaceOnUse"
       width="6"
       height="6"
       x="0"
       y="0" />
    <pattern
       id="EMFhbasepattern-014"
       patternUnits="userSpaceOnUse"
       width="6"
       height="6"
       x="0"
       y="0" />
    <pattern
       id="EMFhbasepattern-27"
       patternUnits="userSpaceOnUse"
       width="6"
       height="6"
       x="0"
       y="0" />
    <pattern
       id="EMFhbasepattern-09"
       patternUnits="userSpaceOnUse"
       width="6"
       height="6"
       x="0"
       y="0" />
    <pattern
       id="EMFhbasepattern-5"
       patternUnits="userSpaceOnUse"
       width="6"
       height="6"
       x="0"
       y="0" />
    <pattern
       id="EMFhbasepattern-018"
       patternUnits="userSpaceOnUse"
       width="6"
       height="6"
       x="0"
       y="0" />
  </defs>
  <sodipodi:namedview
     id="base"
     pagecolor="#ffffff"
     bordercolor="#666666"
     borderopacity="1.0"
     inkscape:pageopacity="0.0"
     inkscape:pageshadow="2"
     inkscape:zoom="6.4882571"
     inkscape:cx="42.61545"
     inkscape:cy="42.61545"
     inkscape:document-units="pt"
     inkscape:current-layer="layer1"
     showgrid="false"
     units="pt"
     inkscape:window-width="1920"
     inkscape:window-height="1001"
     inkscape:window-x="-9"
     inkscape:window-y="41"
     inkscape:window-maximized="1"
     inkscape:pagecheckerboard="true"
     inkscape:showpageshadow="false"
     inkscape:object-paths="true"
     inkscape:snap-intersection-paths="true"
     inkscape:snap-smooth-nodes="true"
     inkscape:snap-midpoints="true"
     showguides="true"
     inkscape:snap-bbox="true"
     inkscape:bbox-nodes="true"
     inkscape:snap-nodes="false"
     inkscape:snap-global="true">
    <inkscape:grid
       type="xygrid"
       id="grid1378" />
    <sodipodi:guide
       position="0.97013831,21.607643"
       orientation="78.000048,0"
       id="guide1380"
       inkscape:locked="false" />
    <sodipodi:guide
       position="0.97013831,0.97013129"
       orientation="0,78.000005"
       id="guide1382"
       inkscape:locked="false" />
    <sodipodi:guide
       position="21.607639,0.97013129"
       orientation="-78.000048,0"
       id="guide1384"
       inkscape:locked="false" />
    <sodipodi:guide
       position="21.607639,21.607643"
       orientation="0,-78.000005"
       id="guide1386"
       inkscape:locked="false" />
  </sodipodi:namedview>
  <metadata
     id="metadata828">
    <rdf:RDF>
      <cc:Work
         rdf:about="">
        <dc:format>image/svg+xml</dc:format>
        <dc:type
           rdf:resource="http://purl.org/dc/dcmitype/StillImage" />
      </cc:Work>
    </rdf:RDF>
  </metadata>
  <g
     inkscape:label="Icon"
     inkscape:groupmode="layer"
     id="layer1"
     transform="translate(0,-274.42223)">
    <g
       id="g10570"
       style="display:inline;stroke-width:0.794878"
       transform="matrix(1.2580546,0,0,1.2580546,0.63842432,-38.904936)">
      <path
         style="color:#000000;fill:#9a605a;stroke-width:0.794878;stroke-linecap:round;stroke-linejoin:round;-inkscape-stroke:none"
         d="m 1.3222656,251.8125 c -0.58135398,0 -1.058593,0.47723 -1.05859372,1.05859 v 7.40821 c 0,0.58136 0.47723957,1.05859 1.05859372,1.05859 h 6.0859375 c 0.4060202,0 0.7993645,-0.17438 1.0527345,-0.42581 0.2738414,0.27216 0.6450407,0.42578 1.03125,0.42578 h 6.1191404 c 0.581354,0 1.056639,-0.47723 1.056641,-1.05859 v -7.40821 c -2e-6,-0.58136 -0.475287,-1.05859 -1.056641,-1.05859 -4.763021,4e-4 -9.5260417,-5.8e-4 -14.2890624,3e-5 z"
         id="path68409"
         sodipodi:nodetypes="ccssccsscccc" />
      <path
         id="path87099"
         style="fill:#66342d;fill-opacity:1;stroke-width:3.00427;stroke-linecap:round;stroke-linejoin:round"
         d="m 55.998047,-73.103516 c 2.568771,0 4.687481,-2.105904 4.6875,-4.679687 v -28.626957 c -0.512171,-0.2407 -1.081076,-0.37695 -1.681641,-0.37695 -18.001953,0 -36.003906,0 -54.0058591,0 -0.600656,0 -1.1705605,0.13813 -1.6835938,0.37891 v 28.624997 c -1.59e-5,2.57382 2.1187177,4.679687 4.6875,4.679687 H 30 c 0.761014,0 1.35728,-0.438494 2,-0.767578 0.642821,0.329953 1.23895,0.767578 2.001953,0.767578 z"
         transform="matrix(0.26458334,0,0,0.26458334,0,280.06666)"
         sodipodi:nodetypes="cccccccccccc" />
      <path
         id="path72258"
         style="color:#000000;fill:#f9f9f9;stroke-width:0.794878;stroke-linecap:round;stroke-linejoin:round;-inkscape-stroke:none"
         d="m 2.1171835,250.75372 c -0.4352449,0 -0.7947863,0.36006 -0.7947836,0.7953 v 7.9375 c -2.7e-6,0.43524 0.3595387,0.79272 0.7947836,0.79272 h 5.8203167 c 0.2024608,0 0.3884562,-0.077 0.5291667,-0.20361 0.1411269,0.12645 0.3273626,0.20361 0.5296834,0.20361 H 14.81615 c 0.435237,0 0.795298,-0.35748 0.795301,-0.79272 v -7.9375 c -3e-6,-0.43524 -0.360064,-0.7953 -0.795301,-0.7953 H 8.9963503 c -0.2023359,0 -0.3885525,0.0782 -0.5296834,0.20516 -0.1407136,-0.12708 -0.3266932,-0.20516 -0.5291667,-0.20516 z" />
      <path
         style="color:#000000;fill:#cccccc;fill-opacity:1;stroke-width:0.794878;stroke-linecap:round;stroke-linejoin:round;-inkscape-stroke:none"
         d="m 3.5722656,263.71875 a 0.26460996,0.26460996 0 0 0 -0.265625,0.26562 v 0.39649 c 0,0.50829 0.4174841,0.92578 0.9257813,0.92578 h 8.4667971 c 0.508297,0 0.927734,-0.41749 0.927734,-0.92578 v -0.39649 a 0.26460996,0.26460996 0 0 0 -0.265625,-0.26562 z"
         id="path93665" />
      <path
         id="path94874"
         style="color:#000000;fill:#bdbdbd;fill-opacity:1;stroke-width:0.794878;stroke-linecap:round;stroke-linejoin:round;-inkscape-stroke:none"
         d="m 3.5723918,263.71882 a 0.26460996,0.26460996 0 0 0 -0.2656169,0.26562 v 0.39636 c 0,0.14156 0.032208,0.27593 0.089917,0.39635 H 13.536125 c 0.05793,-0.12042 0.09095,-0.25478 0.09095,-0.39635 v -0.39636 a 0.26460996,0.26460996 0 0 0 -0.265616,-0.26562 z" />
      <path
         style="color:#000000;fill:#f9f9f9;stroke-width:0.794878;stroke-linecap:round;stroke-linejoin:round;-inkscape-stroke:none"
         d="m 1.0332031,262.39648 c -0.21351687,0 -0.41164944,0.0855 -0.54687497,0.23829 -0.13522554,0.15276 -0.19683513,0.39678 -0.109375,0.61523 0.23436793,0.58539 0.80865627,0.99805 1.47460937,0.99805 H 15.082031 c 0.665973,0 1.238301,-0.41264 1.472656,-0.99805 0.08745,-0.21845 0.02585,-0.46248 -0.109375,-0.61523 -0.135229,-0.15276 -0.331411,-0.23829 -0.544921,-0.23829 z"
         id="path93473" />
      <path
         style="color:#000000;fill:#bdbdbd;fill-opacity:1;stroke-width:0.794878;stroke-linecap:round;stroke-linejoin:round;-inkscape-stroke:none"
         d="m 6.4023437,254.72266 c -0.099406,0 -0.1973128,0.0151 -0.2890625,0.041 a 0.2645835,0.2645835 0 0 0 -0.1816406,0.32617 0.2645835,0.2645835 0 0 0 0.3261719,0.18164 c 0.045674,-0.0129 0.094096,-0.0195 0.1445312,-0.0195 0.2953855,0 0.5273438,0.23391 0.5273438,0.5293 0,0.29539 -0.2319583,0.5293 -0.5273438,0.5293 -0.1179429,0 -0.2248319,-0.0374 -0.3125,-0.10157 a 0.2645835,0.2645835 0 0 0 -0.3691406,0.0566 0.2645835,0.2645835 0 0 0 0.056641,0.3711 c 0.1748235,0.12786 0.392803,0.20312 0.625,0.20312 0.5813653,0 1.0566407,-0.47722 1.0566407,-1.05859 0,-0.58137 -0.4752754,-1.05859 -1.0566407,-1.05859 z"
         id="path1622" />
      <path
         id="path84515"
         style="fill:#ababab;fill-opacity:1;stroke-width:3.00427;stroke-linecap:round;stroke-linejoin:round"
         d="m 23.105469,-95.632812 c -0.529387,0.151467 -0.83672,0.702397 -0.6875,1.232421 0.152296,0.529583 0.704311,0.836161 1.234375,0.685547 0.172626,-0.04876 0.3543,-0.07227 0.544922,-0.07227 0.496014,0 0.945504,0.174931 1.291015,0.466797 0.06117,-0.699507 0.09825,-1.431159 0.115235,-2.210938 -0.437669,-0.166362 -0.912171,-0.257812 -1.347065,-0.25781 -0.434893,3e-6 -0.804212,0.05836 -1.150982,0.156253 z m -0.617188,5.271484 c -0.338962,-0.02124 -0.665535,0.131015 -0.867187,0.404297 -0.329773,0.446117 -0.233362,1.075415 0.214844,1.402343 0.648951,0.474621 1.454448,0.757628 2.314453,0.767579 0.306637,-0.711459 0.553966,-1.411653 0.75,-2.123047 -0.690688,0.269977 -1.310224,-0.02158 -1.882813,-0.259766 -0.154468,-0.113162 -0.338178,-0.179596 -0.529297,-0.191406 z"
         transform="matrix(0.26458334,0,0,0.26458334,0,280.06666)"
         sodipodi:nodetypes="cccsccccccccccc" />
      <path
         style="color:#000000;fill:#cccccc;stroke-width:0.794878;stroke-linecap:round;stroke-linejoin:round;-inkscape-stroke:none"
         d="m 2.9609375,254.19336 a 0.26460996,0.26460996 0 0 0 -0.2636719,0.26953 c 0.017646,1.18379 0.092996,1.85537 0.6230469,2.77344 a 0.26460996,0.26460996 0 0 0 0.2304688,0.13281 h 2.0566406 a 0.26460996,0.26460996 0 0 0 0.2285156,-0.13281 c 0.5287356,-0.9158 0.625,-1.58961 0.625,-2.77735 a 0.26460996,0.26460996 0 0 0 -0.265625,-0.26562 z"
         id="path68190" />
      <path
         id="path2148"
         style="color:#000000;fill:#cccccc;stroke-width:3.00427;stroke-linecap:round;stroke-linejoin:round;-inkscape-stroke:none"
         d="m 12.710938,-83.785156 a 1.0000006,1.0000006 0 0 0 -1.003907,0.996094 1.0000006,1.0000006 0 0 0 1.003907,1.003906 h 9.191406 a 1.0000006,1.0000006 0 0 0 1.003906,-1.003906 1.0000006,1.0000006 0 0 0 -1.003906,-0.996094 z m -1.904297,2.996094 a 1.0000006,1.0000006 0 0 0 -1.0039066,1.003906 1.0000006,1.0000006 0 0 0 1.0039066,0.998047 h 13 a 1.0000006,1.0000006 0 0 0 0.996093,-0.998047 1.0000006,1.0000006 0 0 0 -0.996093,-1.003906 z"
         transform="matrix(0.26458334,0,0,0.26458334,0,280.06666)" />
      <path
         id="path2291"
         style="color:#000000;fill:#cccccc;stroke-width:0.794878;stroke-linecap:round;stroke-linejoin:round;-inkscape-stroke:none"
         d="m 5.139738,251.78673 c -0.1996323,-0.005 -0.2923871,0.19512 -0.3459033,0.35529 -0.071125,0.21285 -0.01388,0.4463 0.1029939,0.63145 0.054027,0.10028 0.1246325,0.19289 0.1638924,0.30038 0.00345,0.15887 -0.2191904,0.22169 -0.1963798,0.39184 -0.010747,0.26515 0.3634012,0.35431 0.4960763,0.14052 0.1598964,-0.1682 0.2669611,-0.40448 0.2221489,-0.63939 -0.026839,-0.19028 -0.1531107,-0.34118 -0.2496161,-0.50003 -0.059228,-0.0816 -0.051352,-0.19087 0.014528,-0.26562 0.1189258,-0.1633 -0.00396,-0.41177 -0.2077403,-0.41444 z m -1.1053588,0.0475 c -0.2055691,0.007 -0.2925919,0.21938 -0.3401692,0.38757 -0.060815,0.21693 0.00602,0.4468 0.1274077,0.62984 0.054684,0.0938 0.1351547,0.18187 0.1471589,0.29319 -0.039606,0.16833 -0.2855987,0.26467 -0.1779128,0.47082 0.098966,0.24574 0.40551,0.17448 0.5184514,-0.0107 0.1474324,-0.17577 0.2338747,-0.41916 0.1651682,-0.6458 -0.048625,-0.19706 -0.2025361,-0.344 -0.2711222,-0.53168 -0.020155,-0.0824 0.033835,-0.15215 0.071267,-0.22495 0.093055,-0.19136 -0.038788,-0.37497 -0.240249,-0.36829 z"
         sodipodi:nodetypes="cccccccccccccccccccc" />
      <path
         style="color:#000000;fill:#cccccc;stroke-width:0.794878;stroke-linecap:round;stroke-linejoin:round;-inkscape-stroke:none"
         d="m 12.699219,251.8125 a 0.2645835,0.2645835 0 0 0 -0.263672,0.26562 0.2645835,0.2645835 0 0 0 0.263672,0.26368 h 1.58789 a 0.2645835,0.2645835 0 0 0 0.265625,-0.26368 0.2645835,0.2645835 0 0 0 -0.265625,-0.26562 z"
         id="path3823" />
      <path
         style="color:#000000;fill:#cccccc;stroke-width:0.794878;stroke-linecap:round;stroke-linejoin:round;-inkscape-stroke:none"
         d="m 12.699219,252.87109 a 0.2645835,0.2645835 0 0 0 -0.263672,0.26368 0.2645835,0.2645835 0 0 0 0.263672,0.26562 h 1.58789 a 0.2645835,0.2645835 0 0 0 0.265625,-0.26562 0.2645835,0.2645835 0 0 0 -0.265625,-0.26368 z"
         id="path3905" />
      <path
         style="color:#000000;fill:#7d8e9e;stroke-width:0.794878;stroke-linecap:round;stroke-linejoin:round;-inkscape-stroke:none"
         d="m 11.046875,251.74609 c -0.471772,0 -0.861328,0.38956 -0.861328,0.86133 0,0.47177 0.389556,0.85938 0.861328,0.85938 0.471772,0 0.859375,-0.38761 0.859375,-0.85938 0,-0.47177 -0.387603,-0.86133 -0.859375,-0.86133 z"
         id="path67789" />
      <path
         style="color:#000000;fill:#cccccc;stroke-width:0.794878;stroke-linecap:round;stroke-linejoin:round;-inkscape-stroke:none"
         d="m 10.583984,253.92969 a 0.2645835,0.2645835 0 0 0 -0.265625,0.26367 0.2645835,0.2645835 0 0 0 0.265625,0.26562 h 3.703125 a 0.2645835,0.2645835 0 0 0 0.265625,-0.26562 0.2645835,0.2645835 0 0 0 -0.265625,-0.26367 z"
         id="path4137" />
      <path
         style="color:#000000;fill:#cccccc;stroke-width:0.794878;stroke-linecap:round;stroke-linejoin:round;-inkscape-stroke:none"
         d="m 10.583984,254.98828 a 0.2645835,0.2645835 0 0 0 -0.265625,0.26367 0.2645835,0.2645835 0 0 0 0.265625,0.26563 h 3.703125 a 0.2645835,0.2645835 0 0 0 0.265625,-0.26563 0.2645835,0.2645835 0 0 0 -0.265625,-0.26367 z"
         id="path4139" />
      <path
         id="path4292"
         style="color:#000000;fill:#7d8e9e;fill-opacity:1;stroke-width:3.00427;stroke-linecap:round;stroke-linejoin:round;-inkscape-stroke:none"
         d="m 35.996094,-98.787109 c -0.552472,0.0019 -0.998262,0.451452 -0.996094,1.003906 0.0019,0.549581 0.446499,0.996157 0.996094,0.998047 0.552476,0.0022 1.002003,-0.445556 1.003906,-0.998047 0.0022,-0.555364 -0.448549,-1.006099 -1.003906,-1.003906 z m 0,4 c -0.552472,0.0019 -0.998262,0.451452 -0.996094,1.003906 0.0019,0.549581 0.446499,0.996157 0.996094,0.998047 0.552476,0.0022 1.002003,-0.445556 1.003906,-0.998047 0.0022,-0.555364 -0.448549,-1.006099 -1.003906,-1.003906 z M 53,-83.783203 c 0.0019,0.552491 0.45143,1.000239 1.003906,0.998047 0.549596,-0.0019 0.9942,-0.448466 0.996094,-0.998047 0.0022,-0.552454 -0.443621,-1.002017 -1.005218,-0.997116 -0.561597,0.0049 -0.996929,0.45043 -0.994782,0.997116 z m 0,4 c 0.0019,0.552491 0.45143,1.000239 1.003906,0.998047 0.549596,-0.0019 0.9942,-0.448466 0.996094,-0.998047 0.0022,-0.552454 -0.443621,-1.002017 -1.005218,-0.997116 -0.561597,0.0049 -0.996929,0.45043 -0.994782,0.997116 z"
         transform="matrix(0.26458334,0,0,0.26458334,0,280.06666)"
         sodipodi:nodetypes="cccccccccccccccccccc" />
      <path
         style="color:#000000;fill:#cccccc;stroke-width:0.794878;stroke-linecap:round;stroke-linejoin:round;-inkscape-stroke:none"
         d="m 9.5253906,257.63281 a 0.2645835,0.2645835 0 0 0 -0.265625,0.26563 0.2645835,0.2645835 0 0 0 0.265625,0.26367 h 3.7031254 a 0.2645835,0.2645835 0 0 0 0.265625,-0.26367 0.2645835,0.2645835 0 0 0 -0.265625,-0.26563 z"
         id="path4443" />
      <path
         style="color:#000000;fill:#cccccc;stroke-width:0.794878;stroke-linecap:round;stroke-linejoin:round;-inkscape-stroke:none"
         d="m 9.5253906,258.69141 a 0.2645835,0.2645835 0 0 0 -0.265625,0.26562 0.2645835,0.2645835 0 0 0 0.265625,0.26367 h 3.7031254 a 0.2645835,0.2645835 0 0 0 0.265625,-0.26367 0.2645835,0.2645835 0 0 0 -0.265625,-0.26562 z"
         id="path4445" />
      <path
         style="color:#000000;fill:#7d8e9e;stroke-width:0.794878;stroke-linecap:round;stroke-linejoin:round;-inkscape-stroke:none"
         d="m 10.130859,256.12305 -0.5292965,0.52929 a 0.2645835,0.2645835 0 0 0 0,0.375 0.2645835,0.2645835 0 0 0 0.375,0 l 0.3417965,-0.34179 0.341797,0.34179 a 0.26460996,0.26460996 0 0 0 0.375,0 l 0.341797,-0.34179 0.341797,0.34179 a 0.26460996,0.26460996 0 0 0 0.375,0 l 0.341797,-0.34179 0.341797,0.34179 a 0.26460996,0.26460996 0 0 0 0.375,0 l 0.341797,-0.34179 0.341797,0.34179 a 0.2645835,0.2645835 0 0 0 0.375,0 0.2645835,0.2645835 0 0 0 0,-0.375 l -0.529297,-0.52929 a 0.26460996,0.26460996 0 0 0 -0.375,0 l -0.341797,0.34179 -0.341797,-0.34179 a 0.26460996,0.26460996 0 0 0 -0.375,0 l -0.341797,0.34179 -0.341797,-0.34179 a 0.26460996,0.26460996 0 0 0 -0.375,0 l -0.341797,0.34179 -0.341797,-0.34179 a 0.26460996,0.26460996 0 0 0 -0.375,0 z"
         id="path4582" />
      <path
         id="path68640"
         style="color:#000000;fill:#66342d;fill-opacity:1;stroke-width:0.794878;stroke-linecap:round;stroke-linejoin:round;-inkscape-stroke:none"
         d="m 8.2046701,261.11177 c 0.101579,-0.0594 0.1886895,-0.1326 0.2563153,-0.19943 0.080616,0.0801 0.1697101,0.14958 0.2651,0.20826 l 0.00413,-0.88785 c -0.09788,-0.0351 -0.1873851,-0.0888 -0.2637738,-0.0885 -0.076389,2.9e-4 -0.1665792,0.0544 -0.2653915,0.0895 z"
         sodipodi:nodetypes="ccccccc" />
      <path
         id="path72340"
         style="color:#000000;fill:#ececec;fill-opacity:1;stroke-width:0.794878;stroke-linecap:round;stroke-linejoin:round;-inkscape-stroke:none"
         d="m 7.9375,253.6834 v 6.59586 c 0.2024607,0 0.3884562,-0.077 0.5291667,-0.20361 V 250.9589 C 8.325953,250.8318 8.1399734,250.75372 7.9375,250.75372 H 2.1171833 c -0.3549402,0 -0.6593295,0.23938 -0.7596437,0.56379 0.073051,-0.0225 0.1505659,-0.0346 0.230477,-0.0346 H 5.5370065 A 2.4004935,2.4004935 45 0 1 7.9375,253.6834 Z"
         sodipodi:nodetypes="ccccssccc" />
      <path
         id="path74100"
         style="color:#000000;fill:#ececec;fill-opacity:1;stroke-width:3.00427;stroke-linecap:round;stroke-linejoin:round;-inkscape-stroke:none"
         d="m 57.003906,-101.31019 v 25.526987 c -2e-6,0.300624 -0.04653,0.590694 -0.130859,0.865234 1.226089,-0.377229 2.13085,-1.523743 2.130859,-2.865234 V -107.7832 c -1.1e-5,-1.645 -1.360869,-3.00586 -3.005859,-3.00586 H 34.001953 c -0.764734,0 -1.468545,0.2957 -2.001953,0.77539 v 1.22461 h 17.525033 a 7.4788728,7.4788728 45 0 1 7.478873,7.47887 z"
         transform="matrix(0.26458334,0,0,0.26458334,0,280.06666)"
         sodipodi:nodetypes="cccccssccc" />
      <path
         id="path82402"
         style="color:#000000;fill:#bdbdbd;fill-opacity:1;stroke-width:3.00427;stroke-linecap:round;stroke-linejoin:round;-inkscape-stroke:none"
         d="m 22.22187,-91.206943 c -0.208858,1.993793 -0.616924,3.817319 -1.376167,5.421787 h 0.347656 c 0.356682,-0.0014 0.685621,-0.192662 0.863282,-0.501953 1.99837,-3.461292 2.363281,-6.008951 2.363281,-10.498047 0.0021,-0.555317 -0.448589,-1.006023 -1.003906,-1.003906 h -12.22461 c -0.558447,0.0021 -1.006948,0.461186 -0.996094,1.019531 0.005,0.338077 0.01135,0.663261 0.01953,0.980469 h 7.616592 c 2.534152,0 4.654333,2.062906 4.390436,4.582119 z"
         transform="matrix(0.26458334,0,0,0.26458334,0,280.06666)"
         sodipodi:nodetypes="cccccccccc" />
      <path
         id="path89195"
         style="color:#000000;fill:#6d7b92;fill-opacity:1;stroke-width:3.00427;stroke-linecap:round;stroke-linejoin:round;-inkscape-stroke:none"
         d="m 41.751953,-107.03906 c -1.409039,0 -2.622576,0.91992 -3.070312,2.18554 0.335966,-0.11885 0.696276,-0.18554 1.070312,-0.18554 1.783075,0 3.248047,1.47279 3.248047,3.25586 0,0.37281 -0.06404,0.73188 -0.181641,1.0664 C 44.08363,-101.16173 45,-102.37304 45,-103.7832 c 0,-1.78307 -1.464972,-3.25586 -3.248047,-3.25586 z"
         transform="matrix(0.26458334,0,0,0.26458334,0,280.06666)" />
      <path
         id="path93853"
         style="color:#000000;fill:#ececec;fill-opacity:1;stroke-width:0.794878;stroke-linecap:round;stroke-linejoin:round;-inkscape-stroke:none"
         d="m 15.371155,262.92564 c 0.21351,-2.4e-4 0.409957,0.0855 0.545186,0.23823 0.135226,0.15275 0.196488,0.39701 0.109038,0.61546 -0.03305,0.0826 -0.07356,0.16115 -0.119373,0.23616 0.290519,-0.17757 0.520327,-0.44505 0.648539,-0.76533 0.08745,-0.21845 0.02619,-0.46271 -0.109037,-0.61546 -0.135229,-0.15276 -0.331676,-0.23823 -0.545186,-0.23823 l -14.8673101,-5e-5 c -0.21351694,0 -0.41151127,0.0854 -0.54673664,0.23823 -0.12094636,0.13654 -0.14211036,0.30799 -0.14211036,0.30799 5.0089968,-0.005 10.0179931,-0.0113 15.0269901,-0.017 z"
         sodipodi:nodetypes="ccccscccccc" />
    </g>
  </g>
</svg>
